<svg class="icon" viewBox="0 0 1024 1024" height="128" width="128" xmlns="http://www.w3.org/2000/svg">
    <path
        d="M504.789282 16.581753C226.597303 16.581753 1.081658 242.100398 1.081658 520.291377c0 278.191978 225.517645 503.708623 503.708623 503.708623s503.709623-225.517645 503.709623-503.708623c0-278.191978-225.518644-503.709623-503.709623-503.709624z m0 967.121997c-255.93602 0-463.412373-207.476353-463.412374-463.413373 0-255.935021 207.476353-463.411374 463.413373-463.411374s463.411374 207.476353 463.411374 463.412374c0 255.93602-207.476353 463.412373-463.412373 463.412373z m308.443406-677.385671c0-12.970896-10.514673-23.485569-23.484569-23.485569-3.958747 0-7.683569 0.983689-10.956534 2.712142l-0.001999-0.003999-0.15895 0.086973-0.158949 0.085972-145.671909 79.326901a23.642519 23.642519 0 0 0-2.871091 1.562506c-6.520937 4.17268-10.856565 11.462373-10.856565 19.778741 0 8.178412 4.185676 15.374136 10.526669 19.578806a23.297628 23.297628 0 0 0 3.565872 1.939386l142.612876 77.579453a23.378603 23.378603 0 0 0 13.97058 4.606543c12.969896 0 23.484569-10.514673 23.484569-23.48457 0-9.218083-5.312319-17.190561-13.040874-21.035344l0.002-0.003999-110.638993-59.180275 111.264795-59.35222 0.184941-0.097969 0.059981-0.03199-0.001-0.001999c7.252705-3.995736 12.16915-11.712294 12.16915-20.579489zM376.4139 407.900938a23.480571 23.480571 0 0 0 3.566872-1.940386c6.338994-4.20467 10.52467-11.399393 10.52467-19.578806 0-8.317368-4.335628-15.606062-10.856565-19.778741a23.554547 23.554547 0 0 0-2.870092-1.562506l-145.655914-79.317903-0.18994-0.101968-0.144954-0.079975-0.001999 0.003999c-3.270965-1.729453-6.997786-2.712142-10.954534-2.712142-12.970896 0-23.485569 10.514673-23.485569 23.485569 0 8.867194 4.916444 16.583753 12.171149 20.580488l-0.001 0.002 0.056982 0.02999c0.06298 0.034989 0.12596 0.066979 0.18894 0.099968l111.261796 59.352221-110.637993 59.180275 0.001999 0.003999c-7.727555 3.844783-13.040874 11.816261-13.040873 21.035344 0 12.969896 10.514673 23.484569 23.485569 23.484569 5.233344 0 10.065815-1.713458 13.970579-4.608541L376.412901 407.900938zM735.010438 743.6647c-2.662158-124.87049-104.710869-225.283719-230.221156-225.283719-125.858178 0-228.117822 100.972052-230.234153 226.325389-0.029991 0.517836-0.049984 1.036672-0.049984 1.562506 0 0.268915 0.011996 0.533831 0.019994 0.799747-0.002999 0.533831-0.019994 1.064663-0.019994 1.598494h0.112964c1.212616 13.407758 12.476052 23.914433 26.198711 23.914433 14.531402 0 26.311675-11.780273 26.311674-26.311674 0-0.447858-0.010997-0.892718-0.033989-1.334578 1.987371-96.448483 80.770444-174.026937 177.693777-174.026937 97.004307 0 175.836364 77.706413 177.700774 174.264862-0.001 0.075976-0.005998 0.150952-0.005998 0.227927 0 0.461854 0.012996 0.921708 0.035989 1.377565 0.001999 0.247922 0.011996 0.493844 0.013995 0.741765l0.054983 0.15695c1.155634 13.454743 12.437065 24.016401 26.191713 24.016401 13.414755 0 24.476256-10.047821 26.084746-23.026714h0.209934c0-0.728769-0.020993-1.449541-0.026992-2.176311 0.014995-0.361885 0.026991-0.723771 0.026992-1.089656 0-0.584815-0.025992-1.162632-0.06398-1.73645zM504.789282 16.455793c-277.894073 0-503.170794 225.276721-503.170794 503.169794 0 277.896072 225.276721 503.170794 503.170794 503.170794s503.170794-225.274722 503.170793-503.170794c0-277.894073-225.276721-503.170794-503.170793-503.170793z m0 953.808209c-248.881252 0-450.639415-201.756163-450.639415-450.638415 0-248.881252 201.758162-450.639415 450.639415-450.639415 248.883252 0 450.638415 201.758162 450.638415 450.639415 0 248.882252-201.756163 450.639415-450.637416 450.639415z"
        fill="#fff" />
</svg>