<?xml version="1.0" standalone="no"?><!DOCTYPE svg PUBLIC "-//W3C//DTD SVG 1.1//EN" "http://www.w3.org/Graphics/SVG/1.1/DTD/svg11.dtd"><svg t="1492784891000" class="icon" style="" viewBox="0 0 1024 1024" version="1.1" xmlns="http://www.w3.org/2000/svg" p-id="995" xmlns:xlink="http://www.w3.org/1999/xlink" width="32" height="32"><defs><style type="text/css"></style></defs><path d="M889.132336 776.99128C885.010459 772.869403 751.58361 639.442554 677.598572 565.457516c36.308951-50.146097 57.728796-111.777783 57.728796-178.420599 0-168.212096-136.362714-304.57481-304.57481-304.57481S126.177747 218.823797 126.177747 387.035894s136.362714 304.57481 304.57481 304.57481c70.178339 0 134.801149-23.74889 186.303126-63.629179 74.093509 74.093509 206.134801 206.134801 210.543204 210.543204 6.139837 6.139837 37.691437 17.045211 58.499345-3.762697C906.905118 813.955146 894.845455 782.704398 889.132336 776.99128zM213.199707 387.035894c0-120.151497 97.402377-217.553874 217.552851-217.553874s217.552851 97.402377 217.552851 217.553874-97.402377 217.552851-217.552851 217.552851S213.199707 507.187391 213.199707 387.035894z" p-id="996" fill="#ffffff"></path></svg>